HIERARCHY
ROOT HipCenter
{
    OFFSET 0.0 0.0 -0.0
    CHANNELS 6 Xposition Yposition Zposition Zrotation Xrotation Yrotation
    JOINT Spine
    {
        OFFSET 0.0 11.541913986206055 0.0
        CHANNELS 3 Zrotation Xrotation Yrotation
        JOINT ShoulderCenter
        {
            OFFSET 0.0 33.018985748291016 0.0
            CHANNELS 3 Zrotation Xrotation Yrotation
            JOINT LeftShoulder
            {
                OFFSET 18.641685485839844 0.0 0.0
                CHANNELS 3 Zrotation Xrotation Yrotation
                JOINT LeftElbow
                {
                    OFFSET 28.85647201538086 0.0 0.0
                    CHANNELS 3 Zrotation Xrotation Yrotation
                    JOINT LeftWrist
                    {
                        OFFSET 29.324241638183594 0.0 0.0
                        CHANNELS 3 Zrotation Xrotation Yrotation
                        JOINT LeftHand
                        {
                            OFFSET 3.777900218963623 0.0 0.0
                            CHANNELS 3 Zrotation Xrotation Yrotation
                            End Site
                            {
                                OFFSET 1.511159896850586 0.0 0.0
                            }
                        }
                    }
                }
            }
            JOINT RightShoulder
            {
                OFFSET -18.641685485839844 0.0 0.0
                CHANNELS 3 Zrotation Xrotation Yrotation
                JOINT RightElbow
                {
                    OFFSET -28.85647201538086 0.0 0.0
                    CHANNELS 3 Zrotation Xrotation Yrotation
                    JOINT RightWrist
                    {
                        OFFSET -29.324241638183594 0.0 0.0
                        CHANNELS 3 Zrotation Xrotation Yrotation
                        JOINT RightHand
                        {
                            OFFSET -3.777900218963623 0.0 0.0
                            CHANNELS 3 Zrotation Xrotation Yrotation
                            End Site
                            {
                                OFFSET -1.511159896850586 0.0 0.0
                            }
                        }
                    }
                }
            }
            End Site
            {
                OFFSET 0.0 13.207594871520996 0.0
            }
        }
    }
    JOINT LeftHip
    {
        OFFSET 13.48195743560791 0.0 0.0
        CHANNELS 3 Zrotation Xrotation Yrotation
        JOINT LeftKnee
        {
            OFFSET 0.0 -41.181251525878906 0.0
            CHANNELS 3 Zrotation Xrotation Yrotation
            JOINT LeftAnkle
            {
                OFFSET 0.0 -42.33193588256836 0.0
                CHANNELS 3 Zrotation Xrotation Yrotation
                JOINT LeftFoot
                {
                    OFFSET 0.0 -13.492183685302734 0.0
                    CHANNELS 3 Zrotation Xrotation Yrotation
                    End Site
                    {
                        OFFSET 0.0 0.0 5.396873474121094
                    }
                }
            }
        }
    }
    JOINT RightHip
    {
        OFFSET -13.48195743560791 0.0 0.0
        CHANNELS 3 Zrotation Xrotation Yrotation
        JOINT RightKnee
        {
            OFFSET 0.0 -41.181251525878906 0.0
            CHANNELS 3 Zrotation Xrotation Yrotation
            JOINT RightAnkle
            {
                OFFSET 0.0 -42.33193588256836 0.0
                CHANNELS 3 Zrotation Xrotation Yrotation
                JOINT RightFoot
                {
                    OFFSET 0.0 -13.492183685302734 0.0
                    CHANNELS 3 Zrotation Xrotation Yrotation
                    End Site
                    {
                        OFFSET 0.0 0.0 5.396873474121094
                    }
                }
            }
        }
    }
}
MOTION
Frames: 6
Frame Time: 0.03333333333333333
-71.69999694824219 69.9000015258789 -61.599998474121094 -49.93919328398863 -7.432798808462784 88.37564493975422 2.1590749403483795 17.65408730724955 -0.32329206237861174 -1.4153111333963738e-06 1.5701992477978014e-06 -0.6119332582571363 109.80965926986235 -16.531245847444065 -157.2950322022797 -3.2092071723401556e-06 4.37944352384479e-06 66.14420624659354 1.046930163710978e-06 12.551591817710829 52.4211162293809 -7.951386703658793e-15 -2.2069531490250793e-31 3.1805546814635176e-15 -107.13003465666776 -17.05753232017479 156.50195769388642 -1.8477928003157062e-06 3.485258062957967e-07 -65.71441706492327 -8.180190949122756e-07 -34.98765192165963 -54.02143315026575 -7.951386703658792e-16 1.1034765745125397e-32 -1.5902773407317584e-15 8.009504155041116 -49.44830769953492 17.48221603349101 11.717182736790786 40.260781177337485 -61.232497751777096 136.84187404419106 -46.688245399407506 -177.94078202582386 -3.975693351829395e-15 1.5902773407317584e-15 -3.1805546814635164e-15 12.569270098276776 -46.96203522706379 1.3969785070309153 -3.0401449704977335 41.524886313062694 39.87305624925779 -126.61444078809518 -42.132245605128226 -168.07004395964535 0.0 0.0 0.0
-71.9000015258789 69.80000305175781 -61.599998474121094 -49.93921997276785 -6.942288376669672 89.24603150694915 1.2444158773816976 17.26408356530677 0.02613971381411086 -1.5800383195119892e-06 -2.3107297502126273e-07 -1.3109158698533343 109.43481646096365 -16.085057676145517 -157.41683072177196 -4.997608545442013e-06 1.124679772964032e-06 64.94100847324023 -1.6089531357022194e-06 14.007362506319094 53.41642057608979 4.770832022195275e-15 -6.3611093629270335e-15 -3.1805546814635164e-15 -106.8017021386921 -17.27279383158921 157.3660233784594 -1.532510803942012e-06 4.341273340749295e-06 -66.2189114543609 2.8284419911106476e-07 -36.73917768282566 -56.7873043247845 2.3854160110976376e-15 6.3611093629270335e-15 -1.5902773407317584e-15 6.508184956781451 -49.28482617293498 14.720395193001421 10.134572362767566 40.03659735959431 -58.496793023767104 139.28266733807448 -48.92536491152702 -176.45110538105118 -5.9635400277440935e-15 -1.5902773407317582e-15 -3.1805546814635168e-15 11.551910571516313 -46.99718746302521 1.2828989573223466 -3.449739832786995 41.48422565630381 40.88893092578044 -128.32120397941742 -42.40806471962431 -169.64028556715698 0.0 0.0 -1.5902773407317584e-15
-72.0 69.5999984741211 -61.69999694824219 -49.93919640060588 -6.450762013974212 89.11011782540008 0.36525260232710094 16.856504229699322 -0.32435057318145105 -2.19868233741602e-06 2.4675923814236576e-06 0.33650042065550584 110.25888138162007 -17.400306256690445 -156.9877359653178 1.156490150158647e-06 1.504440138045749e-06 64.04007327975764 -2.651830225526636e-06 13.522270940375861 55.32982716514118 -3.1805546814635168e-15 0.0 0.0 -105.98056924394034 -16.53477655855846 157.31548067448915 1.4072901436297336e-06 1.3557323063346378e-06 -65.02533512819188 6.773217864226657e-07 -36.42432700528151 -57.16087544609869 7.951386703658792e-16 1.1034765745125397e-32 1.5902773407317584e-15 7.2747826653523475 -49.692527398830514 18.79919950611379 9.325866457275584 40.01658028335792 -59.106231941738066 132.30892422587092 -39.78317215331817 178.67777826761997 5.9635400277440935e-15 3.1805546814635164e-15 -1.5902773407317584e-15 10.819606789409203 -47.13200549630654 1.6680015482853563 -2.2316687769725236 41.5747654823889 38.764642379113035 -128.46475494004181 -42.767311570629495 -168.75588326192315 -1.3241718894150476e-31 -3.1805546814635164e-15 -4.770832022195274e-15
-72.0 69.9000015258789 -61.69999694824219 -50.64054117610182 -6.443509480470239 88.54004748222441 -0.11323718464470248 15.755900226982437 -0.014603708623964005 -7.122321406903602e-07 -8.727984865440139e-07 1.1941815553426791 111.40977682670857 -18.49980468213582 -157.01819741303476 -1.079572171594219e-06 6.547307288690131e-06 63.686355041019155 -3.130759994598469e-06 13.72837531948918 55.706977588640804 2.648343778830095e-31 -6.3611093629270335e-15 4.770832022195275e-15 -105.61382058235758 -16.178818523148706 157.7256352901643 3.3626423776200485e-06 -2.955290843422392e-06 -64.67617349118288 -5.221719209010408e-06 -34.642271918763974 -56.91470451776645 7.951386703658792e-16 0.0 0.0 6.17705811820425 -49.63530623090488 15.830939236630233 10.99897194734432 39.0164327497431 -60.03311133748561 135.94383040780122 -46.32047412985249 -177.93168526494244 -2.7829853462805768e-15 0.0 0.0 11.279598303812293 -47.595816756431205 1.954511078689653 -2.298640154009862 41.2363176841345 39.05511725571231 -127.12221872853864 -42.15057487444468 -168.28633043718455 0.0 0.0 4.770832022195275e-15
-72.0 70.20000457763672 -61.79999542236328 -50.64056858927722 -6.443515630002447 89.11992144669246 -0.2913559957661555 15.35308633686259 0.14878887183104764 2.944410887806148e-06 -9.142066282325572e-07 -0.7225674283148972 112.21458175075178 -17.57457613260304 -157.79578009403156 -4.927845665335411e-08 2.1995417019484006e-06 63.57616268612094 2.4223595014146606e-06 12.95528570942579 55.93334520227835 -3.1805546814635168e-15 -6.3611093629270335e-15 3.1805546814635168e-15 -105.16737426679971 -17.412410150105483 157.35311844855795 2.2388838063037174e-06 2.850411449418656e-06 -64.44655562951105 2.752339085992724e-06 -34.893700805959924 -56.162612802296046 -7.951386703658792e-16 -6.3611093629270335e-15 -4.4139062980501586e-32 5.066324711072191 -49.55311934865853 14.082278519916205 11.238842445312573 38.69655420080589 -59.105488195604806 136.8695507639015 -48.18615056883093 -177.13662518496847 -2.782985346280577e-15 0.0 0.0 10.628256409270254 -47.43416454894581 1.381971012839821 -2.541646325683274 40.48630942579563 39.82513402200623 -126.27425148894118 -41.39676753529053 -168.67648692672654 6.3611093629270335e-15 -3.1805546814635168e-15 -1.5902773407317582e-15
-72.0999984741211 70.30000305175781 -61.79999542236328 -50.64051468720291 -5.951570948106067 88.64277373858108 -2.6167006260941936 13.153134504690502 0.6879735123343801 1.5078924186576538e-06 3.762750503630956e-07 1.9343842594074678 114.09674925055963 -20.63704104873224 -158.8016782114347 2.411941964814241e-06 -6.554711105522271e-07 63.451037064330826 -3.1936650388701176e-06 12.570231304846443 57.45630673904426 -3.1805546814635168e-15 6.3611093629270335e-15 -1.5902773407317582e-15 -102.94779037909677 -15.739153998827696 160.99772912247897 -9.082764081210094e-07 -4.0286570194864824e-07 -65.41434369196104 -2.4412297286224827e-06 -34.84883014757079 -56.68515144040639 0.0 0.0 -1.5902773407317584e-15 4.914616238761682 -49.662359967477 14.630121719914177 11.352082713499446 38.628421529629165 -58.22787969631015 138.24121472282167 -48.989679659767376 -176.21228201344027 -9.541664044390553e-15 -1.5902773407317584e-15 -3.1805546814635176e-15 10.663979815474955 -47.4913380721459 0.5826143968545684 -3.982913155929084 40.147564155319415 40.815118003451325 -127.60077664461066 -43.859961979743616 -169.7494055112343 1.272221872585407e-14 -1.7655625192200634e-31 -1.5902773407317588e-15
